<svg xmlns="http://www.w3.org/2000/svg" fill="none" viewBox="0 0 600 69" height="69" width="600">
<path fill="black" d="M241.1 13.8V57.3H231.5V38.3H211.9V57.3H202.3V13.8H211.9V30.3H231.5V13.8H241.1ZM160.5 21.5999H173V57.3H182.6V21.5999H195V13.7H160.5V21.5999ZM97 39.9C97 47.5 93.2 50.4 87.6 50.4C82 50.4 78.2 47.4999 78.2 39.9999V25.3H68.5V40.0999C68.5 50.2999 74.3 58.3 87.7 58.3C101.1 58.3 106.8 50.2999 106.8 40.0999V25.3H97V39.9ZM68.4 21.5999H78.1V13.7H68.4V21.5999ZM97 21.5999H106.7V13.7H97V21.5999ZM26.3 13.8L17.3 45.0999L9.4 13.8H0L11.9 57.3H21.7L31.1 24.8L40.5 57.3H50.4L62.3 13.8H53L45.1 45.0999L36.1 13.8H26.3ZM117.2 13.8H138.4C150.5 13.8 155.5 20.6999 155.5 28.0999C155.5 33.0999 152.5 37.9 147 40.4L156.8 57.3H145.9L137.5 42.3H126.5V57.3H117.1V13.8H117.2ZM126.5 21.3V34.8H137.4C143.5 34.8 146.1 32.0999 146.1 28.0999C146.1 24.0999 143.5 21.3 137.4 21.3H126.5Z"></path>
<path fill="black" d="M581.5 13.8H561.7V57.3H571.3V43.3H581.5C594.9 43.3 599.9 36.4 599.9 28.5C600 20.7 594.9 13.8 581.5 13.8ZM590.4 28.7C590.4 33.2 587.8 35.8 580.6 35.8H571.4V21.5H580.6C587.8 21.5 590.4 24.2 590.4 28.7ZM481.3 12.8C467.3 12.8 458.8 23.3 458.8 35.6C458.8 47.9 467.3 58.3 481.3 58.3C495.3 58.3 503.8 47.8 503.8 35.6C503.9 23.3 495.4 12.8 481.3 12.8ZM494.2 35.6C494.2 44.7 489.2 50.4001 481.3 50.4001C473.4 50.4001 468.4 44.6 468.4 35.6C468.4 26.5 473.4 20.7 481.3 20.7C489.3 20.7 494.2 26.5 494.2 35.6ZM542.2 13.8H551.6V40.2C551.6 50.4 545.7 58.4001 532.1 58.4001C518.6 58.4001 512.6 50.4 512.6 40.2V13.9001H522V40.1C522 47.6 526.2 50.5 532.2 50.5C538.2 50.5 542.4 47.6 542.4 40V13.8H542.2ZM371.4 35.6C371.4 44.8 376.4 50.6 385 50.6C390.4 50.6 392.9 48.9 394.5 48V41.2H384.4V33.7H404V50.8C401.7 53.2 396.1 58.4001 384.3 58.4001C370.3 58.4001 361.8 48 361.8 35.7C361.8 23.4 370.3 12.9001 385 12.9001C396 12.9001 400.6 18.1 402.7 20.2L396.5 26.3C394.4 24.1 391.6 20.8 385 20.8C376.4 20.7 371.4 26.5 371.4 35.6ZM413.7 57.3H423.1V42.3H434.1L442.5 57.3H453.4L443.6 40.4001C449.1 37.9001 452.1 33.1 452.1 28.1C452.1 20.7 447.2 13.8 435 13.8H413.8V57.3H413.7ZM434 21.3C440.1 21.3 442.7 24.1 442.7 28.1C442.7 32.1 440.1 34.8 434 34.8H423.1V21.3H434Z"></path>
<path fill="#E3000F" d="M334.8 26.7H272.4V0H298.4V10.5H308.9V0H334.9V26.7H334.8ZM308.8 57.8V68.3C323.7 65.5 334.8 52.5 334.8 37.9V37.4H272.4V37.9C272.4 52.5 283.4 65.5 298.4 68.3V57.8H308.8Z"></path>
</svg>
