<svg xmlns="http://www.w3.org/2000/svg" fill="none" viewBox="0 0 160 43" height="43" width="160">
<path fill="#C7CCD1" d="M17.0182 0C7.65821 0 0 7.65495 0 17.0109C0 26.367 7.65821 34.022 17.0182 34.022C26.3782 34.022 34.0364 26.4142 34.0364 17.0109C34.0364 7.6076 26.4254 0 17.0182 0ZM17.0182 27.9263C11.2037 27.9263 6.52354 23.1539 6.52354 17.0109C6.52354 10.8681 11.2037 6.0955 17.0182 6.0955C22.8327 6.0955 27.5127 10.8681 27.5127 17.0109C27.5127 23.1539 22.8327 27.9263 17.0182 27.9263Z"></path>
<path fill="#C7CCD1" d="M51.2432 9.45056C48.1705 9.45056 45.1924 10.6792 43.6323 12.7583V9.92306H37.4868V43H43.6323V31.0451C45.1924 32.9824 48.0759 34.022 51.2432 34.022C57.8614 34.022 63.0617 28.8242 63.0617 21.7363C63.0617 14.6484 57.8614 9.45056 51.2432 9.45056ZM50.2032 28.6825C46.7051 28.6825 43.585 25.9418 43.585 21.7363C43.585 17.5307 46.7051 14.7901 50.2032 14.7901C53.7014 14.7901 56.8211 17.5307 56.8211 21.7363C56.8211 25.9418 53.7014 28.6825 50.2032 28.6825Z"></path>
<path fill="#C7CCD1" d="M77.5274 9.45056C70.8152 9.45056 65.5208 14.6957 65.5208 21.7363C65.5208 28.7769 70.1534 34.022 77.7166 34.022C83.9092 34.022 87.88 30.289 89.1095 26.0834H83.1061C82.3493 27.8319 80.2226 29.0604 77.6695 29.0604C74.5018 29.0604 72.0917 26.8396 71.5241 23.6737H89.3928V21.2638C89.3928 14.8374 84.9023 9.45056 77.5274 9.45056ZM71.5712 19.3264C72.233 16.3495 74.691 14.412 77.6695 14.412C80.8364 14.412 83.2474 16.4912 83.5316 19.3264H71.5712Z"></path>
<path fill="#C7CCD1" d="M105.749 9.45056C103.007 9.45056 100.123 10.6792 98.7993 12.711V9.92306H92.6538V33.5493H98.7993V20.8385C98.7993 17.1527 100.785 14.7428 104 14.7428C106.977 14.7428 108.584 17.0111 108.584 20.177V33.5493H114.731V19.1846C114.731 13.3252 111.137 9.45056 105.749 9.45056Z"></path>
<path fill="#C7CCD1" d="M130.471 0.473389L117.093 33.5503H123.664L126.499 26.3207H141.722L144.558 33.5503H151.222L137.94 0.473389H130.471ZM128.627 20.8393L134.111 6.9943L139.546 20.8393H128.627Z"></path>
<path fill="#C7CCD1" d="M159.968 0.473389H153.728V33.5503H159.968V0.473389Z"></path>
</svg>
