<svg xmlns="http://www.w3.org/2000/svg" fill="none" viewBox="0 0 152 30" height="30" width="152">
<g clip-path="url(#clip0_1146_52407)">
<path fill="#BCBCBC" d="M73.8 21.5H70.12V7.77999H73.8V21.5ZM97.4 21.5H93.72V7.77999H97.4V21.5ZM117.97 21.5H114.29V7.77999H117.97V21.5ZM57.07 21.5H53.38V14.05C53.38 10.55 55.64 7.48999 60.16 7.48999C64.36 7.48999 66.79 10.57 66.79 14.05V21.5H63.1V13.91C63.1 12.21 61.77 10.91 60.07 10.91C59.6722 10.8976 59.276 10.9666 58.9059 11.1128C58.5358 11.2591 58.1994 11.4794 57.9175 11.7604C57.6356 12.0413 57.4142 12.3769 57.2667 12.7466C57.1192 13.1163 57.0489 13.5122 57.06 13.91V21.51L57.07 21.5ZM141.52 21.5H137.84V14.05C137.84 10.55 140.1 7.48999 144.62 7.48999C148.82 7.48999 151.24 10.57 151.24 14.05V21.5H147.57V13.91C147.57 12.21 146.23 10.91 144.54 10.91C144.141 10.8962 143.744 10.9642 143.373 11.1098C143.001 11.2554 142.664 11.4755 142.381 11.7566C142.098 12.0377 141.876 12.3738 141.728 12.7442C141.579 13.1145 141.509 13.5113 141.52 13.91V21.51V21.5ZM83.76 16.16L87.52 7.77999H91.34L85.04 21.5H82.49L76.2 7.77999H80L83.77 16.16H83.76ZM102.14 17.32C103.193 18.2018 104.526 18.6803 105.9 18.67C106.89 18.67 107.65 18.19 107.65 17.52C107.65 15.45 101.01 16.19 101.01 11.77C101.01 9.12999 103.55 7.48999 106.27 7.48999C108.05 7.48999 110 8.16999 110.91 8.87999L109.19 11.54C108.426 10.9662 107.505 10.6415 106.55 10.61C105.54 10.61 104.68 11.01 104.68 11.71C104.68 13.5 111.33 12.78 111.33 17.55C111.33 20.18 108.76 21.79 105.87 21.79C103.98 21.79 101.97 21.14 100.37 19.95L102.14 17.32ZM127.91 18.39C130.06 18.39 131.53 16.72 131.53 14.66C131.53 12.59 130.06 10.89 127.91 10.89C125.77 10.89 124.29 12.59 124.29 14.66C124.29 16.72 125.77 18.39 127.91 18.39ZM127.91 7.48999C132.07 7.48999 135.2 10.69 135.2 14.66C135.203 15.6107 135.015 16.5524 134.648 17.4293C134.281 18.3062 133.741 19.1005 133.061 19.7653C132.382 20.43 131.576 20.9517 130.691 21.2995C129.806 21.6473 128.86 21.8141 127.91 21.79C126.014 21.79 124.195 21.0367 122.854 19.6958C121.513 18.3549 120.76 16.5363 120.76 14.64C120.76 12.7437 121.513 10.9251 122.854 9.58418C124.195 8.24329 126.014 7.48999 127.91 7.48999ZM46.69 7.77999H50.37V15.23C50.37 18.73 48.1 21.79 43.58 21.79C42.7057 21.8277 41.833 21.6843 41.0167 21.3688C40.2005 21.0532 39.4583 20.5724 38.8367 19.9564C38.215 19.3404 37.7275 18.6026 37.4045 17.7893C37.0816 16.9759 36.9302 16.1046 36.96 15.23V7.77999H40.63V15.38C40.63 15.7765 40.7085 16.1691 40.8612 16.535C41.0138 16.901 41.2375 17.233 41.5192 17.512C41.801 17.791 42.1353 18.0113 42.5027 18.1603C42.8702 18.3093 43.2635 18.384 43.66 18.38C45.26 18.38 46.69 17.25 46.69 15.38V7.77999Z" clip-rule="evenodd" fill-rule="evenodd"></path>
<path fill="#BCBCBC" d="M12.02 0V16.58C12.84 16.58 17.45 16.7 21.35 16.35C22.33 16.25 23.29 16.13 24.21 15.97C26.45 15.54 28.34 14.87 29 14.32V1.65C27.29 0.38 20.1 0 12.02 0Z" clip-rule="evenodd" fill-rule="evenodd"></path>
<path fill="#CACACA" d="M29 14.5399V14.3199C28.34 14.8699 26.45 15.5399 24.2 15.9699C23.3 16.1199 22.33 16.2499 21.35 16.3499C17.45 16.6999 12.85 16.5799 12.02 16.5799V16.8699L12.04 18.7299L12.06 19.2599C12.08 20.0599 12.12 20.8599 12.17 21.6399C12.27 23.2799 12.46 24.8199 12.74 26.0999C13.06 27.5299 13.51 28.6499 14.14 29.2399L14.17 29.2699L14.79 29.2899C19.61 29.2899 23.86 26.8899 26.43 23.2199C27.4107 21.7361 28.1122 20.0857 28.5 18.3499C28.83 17.1499 29 15.8699 29 14.5499V14.5399Z" clip-rule="evenodd" fill-rule="evenodd"></path>
<path fill="#E9E9E9" d="M14.14 29.2399C13.51 28.6499 13.06 27.5399 12.74 26.0999C12.4413 24.6292 12.2508 23.1385 12.17 21.6399C12.0631 20.0489 12.0131 18.4546 12.02 16.8599V16.5799C8.28002 16.5799 5.03002 16.2999 3.48002 16.0199C1.85002 15.7199 0.770018 15.1199 0.580018 14.8199C0.523329 17.831 1.43085 20.7813 3.17002 23.2399C4.41875 25.0209 6.06018 26.4909 7.9675 27.5365C9.87483 28.582 11.997 29.1751 14.17 29.2699L14.14 29.2399Z" clip-rule="evenodd" fill-rule="evenodd"></path>
<path fill="#DFDFDF" d="M1.13008 0.97998C0.830078 0.97998 0.580078 1.22998 0.580078 1.52998V14.82C0.770078 15.12 1.85008 15.72 3.48008 16.02L4.37008 16.15C6.10008 16.38 8.88008 16.58 12.0201 16.58V6.35998C8.48008 1.79998 3.00008 0.97998 1.13008 0.97998Z" clip-rule="evenodd" fill-rule="evenodd"></path>
</g>
<defs>
<clipPath id="clip0_1146_52407">
<rect fill="white" height="30" width="152"></rect>
</clipPath>
</defs>
</svg>
